<svg id="Laag_4" data-name="Laag 4" xmlns="http://www.w3.org/2000/svg" viewBox="0 0 127.3 12.25"><defs><style>.cls-1{fill:#fff;}.cls-2{fill:#9d9d9c;}</style></defs><path class="cls-1" d="M209.14,478.92a1,1,0,0,1-1.06-1,1.18,1.18,0,0,1,0-.26l.21-1.06a1.21,1.21,0,0,1,1.29-1.08,1,1,0,0,1,1.08,1,.71.71,0,0,1,0,.2l-.21,1.12A1.21,1.21,0,0,1,209.14,478.92Zm1.18-2.16a.62.62,0,0,0,0-.19.7.7,0,0,0-.76-.7.9.9,0,0,0-1,.84l-.19,1a.76.76,0,0,0,0,.21.66.66,0,0,0,.73.68.94.94,0,0,0,1-.88Z" transform="translate(-148.1 -474.46)"/><path class="cls-1" d="M211.81,475.9l-.23,1.17h1.57l-.06.31h-1.57l-.3,1.51h-.33l.64-3.3h2.12l-.06.31Z" transform="translate(-148.1 -474.46)"/><path class="cls-1" d="M214.45,475.9l-.23,1.17h1.57l-.06.31h-1.58l-.29,1.51h-.33l.64-3.3h2.12l-.06.31Z" transform="translate(-148.1 -474.46)"/><path class="cls-1" d="M216.27,478.89l.64-3.3h.34l-.64,3.3Z" transform="translate(-148.1 -474.46)"/><path class="cls-1" d="M220,475.85l-.21.26a1.13,1.13,0,0,0-.7-.25c-.51,0-.79.29-.9.85l-.21,1a1.79,1.79,0,0,0,0,.23c0,.45.32.66.74.66a1.48,1.48,0,0,0,.8-.25l.14.27a1.8,1.8,0,0,1-1,.28.93.93,0,0,1-1.05-.92,1.21,1.21,0,0,1,0-.25l.22-1.12a1.17,1.17,0,0,1,1.24-1.08A1.43,1.43,0,0,1,220,475.85Z" transform="translate(-148.1 -474.46)"/><path class="cls-1" d="M220.12,478.89l.64-3.3h.34l-.64,3.3Z" transform="translate(-148.1 -474.46)"/><path class="cls-1" d="M223.33,478.89l-.1-.77h-1.41l-.41.77h-.36l1.77-3.3h.36l.5,3.3Zm-.4-2.9-.48.93-.46.89h1.19l-.11-.88L223,476Z" transform="translate(-148.1 -474.46)"/><path class="cls-1" d="M224.18,478.89l.64-3.3h.34l-.59,3h1.82l0,.3Z" transform="translate(-148.1 -474.46)"/><path class="cls-1" d="M230,478.89l.3-1.52h-1.7l-.3,1.52h-.34l.65-3.3h.33l-.29,1.47h1.71l.29-1.47H231l-.64,3.3Z" transform="translate(-148.1 -474.46)"/><path class="cls-1" d="M231,478.89l.64-3.3h2.12l-.06.31h-1.78l-.23,1.17h1.57l-.06.31h-1.57l-.24,1.21h1.93l-.06.3Z" transform="translate(-148.1 -474.46)"/><path class="cls-1" d="M235.77,478.89l-.11-.77h-1.41l-.4.77h-.36l1.77-3.3h.35l.51,3.3Zm-.4-2.9-.48.93-.47.89h1.2l-.12-.88-.12-.94Z" transform="translate(-148.1 -474.46)"/><path class="cls-1" d="M238,475.9l-.58,3h-.34l.58-3h-1l.06-.31h2.32l0,.31Z" transform="translate(-148.1 -474.46)"/><path class="cls-1" d="M239,478.89l.64-3.3H240l-.64,3.3Z" transform="translate(-148.1 -474.46)"/><path class="cls-1" d="M241,476.17l-.52,2.72h-.33l.64-3.3h.32c.15.34,1.15,2.5,1.26,2.73l.53-2.73h.33l-.63,3.3h-.33C242.09,478.53,241.14,476.44,241,476.17Z" transform="translate(-148.1 -474.46)"/><path class="cls-1" d="M244.46,478.92a.92.92,0,0,1-1-.93,1.13,1.13,0,0,1,0-.25l.21-1.1a1.23,1.23,0,0,1,1.31-1.09,1.34,1.34,0,0,1,.89.28l-.2.26a1.15,1.15,0,0,0-.7-.22.93.93,0,0,0-1,.84l-.21,1a1.65,1.65,0,0,0,0,.21.65.65,0,0,0,.71.66,1.29,1.29,0,0,0,.73-.24l.17-.87h-.55l.06-.31h.89l-.26,1.34A1.57,1.57,0,0,1,244.46,478.92Z" transform="translate(-148.1 -474.46)"/><path class="cls-1" d="M249,475.9l-.58,3h-.34l.58-3h-1l0-.31h2.33l-.06.31Z" transform="translate(-148.1 -474.46)"/><path class="cls-1" d="M249.9,478.89l.64-3.3h2.11l-.05.31h-1.78l-.23,1.17h1.56l-.05.31h-1.57l-.24,1.21h1.93l-.06.3Z" transform="translate(-148.1 -474.46)"/><path class="cls-1" d="M255.18,475.85l-.22.26a1.1,1.1,0,0,0-.69-.25c-.52,0-.79.29-.91.85l-.21,1a1.79,1.79,0,0,0,0,.23.65.65,0,0,0,.74.66,1.48,1.48,0,0,0,.8-.25l.14.27a1.77,1.77,0,0,1-1,.28.93.93,0,0,1-1.05-.92,1.21,1.21,0,0,1,0-.25l.22-1.12a1.17,1.17,0,0,1,1.25-1.08A1.47,1.47,0,0,1,255.18,475.85Z" transform="translate(-148.1 -474.46)"/><path class="cls-1" d="M257.25,478.89l.3-1.52h-1.7l-.3,1.52h-.34l.64-3.3h.34l-.29,1.47h1.71l.29-1.47h.34l-.64,3.3Z" transform="translate(-148.1 -474.46)"/><path class="cls-1" d="M259.08,476.17l-.52,2.72h-.33l.63-3.3h.32l1.27,2.73.52-2.73h.34l-.64,3.3h-.33C260.17,478.53,259.23,476.44,259.08,476.17Z" transform="translate(-148.1 -474.46)"/><path class="cls-1" d="M262.61,478.92a1,1,0,0,1-1.07-1,1.22,1.22,0,0,1,0-.26l.2-1.06a1.22,1.22,0,0,1,1.3-1.08,1,1,0,0,1,1.08,1,.71.71,0,0,1,0,.2l-.21,1.12A1.21,1.21,0,0,1,262.61,478.92Zm1.18-2.16a1.23,1.23,0,0,0,0-.19.7.7,0,0,0-.76-.7.91.91,0,0,0-1,.84l-.19,1a1.49,1.49,0,0,0,0,.21.66.66,0,0,0,.72.68.94.94,0,0,0,1-.88Z" transform="translate(-148.1 -474.46)"/><path class="cls-1" d="M264.37,478.89l.64-3.3h.34l-.59,3h1.82l-.06.3Z" transform="translate(-148.1 -474.46)"/><path class="cls-1" d="M268.1,478.92a1,1,0,0,1-1.06-1,1.18,1.18,0,0,1,0-.26l.21-1.06a1.21,1.21,0,0,1,1.29-1.08,1,1,0,0,1,1.08,1,.71.71,0,0,1,0,.2l-.21,1.12A1.21,1.21,0,0,1,268.1,478.92Zm1.18-2.16a.62.62,0,0,0,0-.19.7.7,0,0,0-.76-.7.9.9,0,0,0-1,.84l-.2,1a1.49,1.49,0,0,0,0,.21.66.66,0,0,0,.72.68,1,1,0,0,0,1-.88Z" transform="translate(-148.1 -474.46)"/><path class="cls-1" d="M271,478.92a.92.92,0,0,1-1-.93,1.13,1.13,0,0,1,0-.25l.21-1.1a1.23,1.23,0,0,1,1.31-1.09,1.34,1.34,0,0,1,.89.28l-.2.26a1.15,1.15,0,0,0-.7-.22.93.93,0,0,0-1,.84l-.21,1a1.65,1.65,0,0,0,0,.21.65.65,0,0,0,.71.66,1.29,1.29,0,0,0,.73-.24l.17-.87h-.55l.06-.31h.89l-.26,1.34A1.57,1.57,0,0,1,271,478.92Z" transform="translate(-148.1 -474.46)"/><path class="cls-1" d="M273.9,477.28c.12-.17.49-.74.6-.91l.52-.78h.38l-1.38,2-.24,1.26h-.34l.25-1.26-.61-2h.35l.25.93.21.76Z" transform="translate(-148.1 -474.46)"/><path class="cls-1" d="M210.46,481.53l-.18.27a1.47,1.47,0,0,0-.8-.21.77.77,0,0,0-.83.69c0,.36.39.46.64.51.54.12,1,.26,1,.83s-.6,1-1.34,1a1.57,1.57,0,0,1-1.09-.37l.2-.24a1.44,1.44,0,0,0,.91.3c.53,0,.95-.26.95-.71s-.37-.47-.67-.53c-.46-.08-.94-.25-.94-.79a1.07,1.07,0,0,1,1.2-1A1.82,1.82,0,0,1,210.46,481.53Z" transform="translate(-148.1 -474.46)"/><path class="cls-1" d="M211.85,484.67a.94.94,0,0,1-1-.93,1.13,1.13,0,0,1,0-.25l.42-2.16h.34l-.42,2.17a.65.65,0,0,0,0,.19.66.66,0,0,0,.72.67,1,1,0,0,0,1-.84l.42-2.19h.34l-.44,2.26A1.27,1.27,0,0,1,211.85,484.67Z" transform="translate(-148.1 -474.46)"/><path class="cls-1" d="M215.52,481.33a.79.79,0,0,1,.81.84,1.11,1.11,0,0,1-1.11,1.1h-1l-.27,1.37h-.33l.64-3.31Zm-1,.31-.26,1.31h.92a.77.77,0,0,0,.8-.74.53.53,0,0,0-.57-.57Z" transform="translate(-148.1 -474.46)"/><path class="cls-1" d="M218.26,481.33a.79.79,0,0,1,.81.84,1.11,1.11,0,0,1-1.11,1.1h-1l-.27,1.37h-.33l.64-3.31Zm-1,.31L217,483h.92a.78.78,0,0,0,.8-.74.53.53,0,0,0-.57-.57Z" transform="translate(-148.1 -474.46)"/><path class="cls-1" d="M219.12,484.64l.65-3.31h.33l-.58,3h1.82l-.06.31Z" transform="translate(-148.1 -474.46)"/><path class="cls-1" d="M221.82,484.64l.64-3.31h.34l-.64,3.31Z" transform="translate(-148.1 -474.46)"/><path class="cls-1" d="M223,484.64l.65-3.31h2.11l-.06.31h-1.78l-.23,1.18h1.57l-.06.31h-1.57l-.23,1.2h1.92l-.05.31Z" transform="translate(-148.1 -474.46)"/><path class="cls-1" d="M226,484.64h-.33l.64-3.31h1.31a.75.75,0,0,1,.78.83,1.08,1.08,0,0,1-.81,1l.36,1.43h-.37c-.1-.46-.21-.92-.31-1.37h-1Zm.59-3-.25,1.3h.93a.74.74,0,0,0,.79-.76.5.5,0,0,0-.55-.54Z" transform="translate(-148.1 -474.46)"/><path class="cls-1" d="M230.61,481.64l-.23,1.18H232l-.06.31h-1.57l-.29,1.51h-.34l.64-3.31h2.12l-.06.31Z" transform="translate(-148.1 -474.46)"/><path class="cls-1" d="M233.57,484.67a1,1,0,0,1-1.07-1,1.22,1.22,0,0,1,0-.26l.2-1.06a1.22,1.22,0,0,1,1.3-1.08,1,1,0,0,1,1.08,1,1.49,1.49,0,0,1,0,.21l-.21,1.12A1.23,1.23,0,0,1,233.57,484.67Zm1.18-2.16a1.54,1.54,0,0,0,0-.19.71.71,0,0,0-.76-.71.92.92,0,0,0-1,.85l-.19,1a1.8,1.8,0,0,0,0,.22.66.66,0,0,0,.72.68.94.94,0,0,0,1-.88Z" transform="translate(-148.1 -474.46)"/><path class="cls-1" d="M235.63,484.64h-.33l.64-3.31h1.31a.76.76,0,0,1,.78.83,1.09,1.09,0,0,1-.81,1l.35,1.43h-.36c-.11-.46-.21-.92-.32-1.37h-1Zm.59-3L236,483h.93a.75.75,0,0,0,.8-.76.5.5,0,0,0-.55-.54Z" transform="translate(-148.1 -474.46)"/><path class="cls-1" d="M241.15,483.32l1.35-2h.63l-.63,3.31h-.65l.34-1.78h0c-.17.24-.73,1.05-1,1.32h-.47c-.08-.23-.35-1.06-.42-1.31h0l-.34,1.77h-.65l.63-3.31h.58c.14.46.48,1.58.59,2Z" transform="translate(-148.1 -474.46)"/><path class="cls-1" d="M245.15,484H244l-.35.68H243l1.79-3.31h.67l.51,3.31h-.69Zm-.86-.56h.79l-.05-.5-.09-.77h0l-.35.71Z" transform="translate(-148.1 -474.46)"/><path class="cls-1" d="M248.79,482.15a1,1,0,0,0-.66-.25.67.67,0,0,0-.7.63l-.17.93a.59.59,0,0,0,0,.13c0,.34.27.47.55.47a1.35,1.35,0,0,0,.73-.24l.28.53a1.91,1.91,0,0,1-1.11.31,1,1,0,0,1-1.11-1,1.18,1.18,0,0,1,0-.26l.21-1.06a1.24,1.24,0,0,1,1.34-1.07,1.55,1.55,0,0,1,1,.35Z" transform="translate(-148.1 -474.46)"/><path class="cls-1" d="M251.42,483.45c.14-.71.27-1.41.41-2.12h.65l-.64,3.31h-.59c-.23-.49-.77-1.64-1-2.1l-.43,2.1h-.65l.63-3.31h.6c.22.44.77,1.66,1,2.12Z" transform="translate(-148.1 -474.46)"/><path class="cls-1" d="M254.5,484h-1.15l-.34.68h-.72l1.79-3.31h.67l.51,3.31h-.69Zm-.87-.56h.79l0-.5-.08-.77h0l-.36.71Z" transform="translate(-148.1 -474.46)"/><path class="cls-1" d="M154.07,479.5l3.11,2.18a.11.11,0,0,1-.06.19h-2.4a.43.43,0,0,1-.27-.08l-2.61-1.9a.25.25,0,0,0-.17-.05h-1.13a.32.32,0,0,0-.32.24l-.41,1.66a.17.17,0,0,1-.16.12h-1.38a.16.16,0,0,1-.16-.21l1.18-4.81a.15.15,0,0,1,.15-.12h1.39a.15.15,0,0,1,.14.2l-.36,1.49a.2.2,0,0,0,.2.26h1.06a.59.59,0,0,0,.29-.07l3.15-1.82a.41.41,0,0,1,.24,0h2.32a.11.11,0,0,1,0,.21l-3.85,2.14A.25.25,0,0,0,154.07,479.5Z" transform="translate(-148.1 -474.46)"/><path class="cls-1" d="M161.66,476.73H160.2a.19.19,0,0,0-.2.15l-.86,3.64a1.09,1.09,0,0,0,1.08,1.35H166a.5.5,0,0,0,.36-.16l.87-.89a.1.1,0,0,0-.07-.17h-5.51a.6.6,0,0,1-.58-.73l.72-3.05C161.81,476.8,161.8,476.73,161.66,476.73Z" transform="translate(-148.1 -474.46)"/><path class="cls-1" d="M188.79,481.72a.21.21,0,0,1-.18.15h-2.18a.59.59,0,0,1-.41-.18l-3.27-3.38a.34.34,0,0,0-.28-.14c-.11,0-.19.08-.23.26l-.78,3.29a.2.2,0,0,1-.21.15h-1.37c-.11,0-.13-.08-.11-.14l1.15-4.85a.2.2,0,0,1,.18-.15h2.1a.64.64,0,0,1,.49.18l3.33,3.45c.2.2.39.06.44-.19l.78-3.29a.2.2,0,0,1,.19-.15h1.4c.1,0,.12.07.1.14Z" transform="translate(-148.1 -474.46)"/><path class="cls-2" d="M202.49,474.46h-7.72a3.68,3.68,0,0,0-3.58,2.71l-1.05,4.26c-.62,2.8,1.11,4.16,3.24,4.16h2.75a.55.55,0,0,1,.35.17l.49.62a1.18,1.18,0,0,0,.82.33h3.51a.48.48,0,0,0,.48-.38.46.46,0,0,0-.46-.54h-1.5a.09.09,0,0,1-.09-.12l.39-1.64a.14.14,0,0,1,.14-.09H202a.48.48,0,0,0,.48-.38A.46.46,0,0,0,202,483h-3.78a1.44,1.44,0,0,0-.88.35s-.36.33-.56.49a1,1,0,0,1-.63.14h-2.39c-1.9,0-2.75-.94-2.32-2.77l.94-3.82a2.66,2.66,0,0,1,2.57-1.93h7.48c1.21,0,1.63.86,1.29,2l-.53,2a1.59,1.59,0,0,1-1.5,1.12h-1a.17.17,0,0,1,.13.23l-.18.75a.3.3,0,0,1-.24.23h.84a2.73,2.73,0,0,0,2.72-1.79l.67-2.63A2.19,2.19,0,0,0,202.49,474.46Z" transform="translate(-148.1 -474.46)"/><path class="cls-1" d="M194,481.88a1.09,1.09,0,0,1-1.08-1.35l.61-2.58a1.54,1.54,0,0,1,1.53-1.23h6.62a.61.61,0,0,1,.62.76l-.35,1.39a.86.86,0,0,1-.85.65h-4.71a.11.11,0,0,1-.11-.14c.08-.32.08-.32.13-.56a.18.18,0,0,1,.18-.14H201a.15.15,0,0,0,.15-.11l.18-.7a.11.11,0,0,0-.1-.12l-5.44,0a.78.78,0,0,0-.76.61l-.39,1.59a.59.59,0,0,0,.58.72h5.07a.19.19,0,0,1,.19.24c-.05.2-.1.48-.15.69a.35.35,0,0,1-.35.28Z" transform="translate(-148.1 -474.46)"/><path class="cls-1" d="M178.18,481.72l-2.63-4.83a.38.38,0,0,0-.29-.15h-2a.56.56,0,0,0-.35.16l-4.62,4.78a.11.11,0,0,0,.07.18h1.67a.54.54,0,0,0,.36-.18l.73-.76a.76.76,0,0,1,.56-.26h3.45a.5.5,0,0,1,.45.25l.46.8a.37.37,0,0,0,.29.16h1.74A.1.1,0,0,0,178.18,481.72ZM175,479.79h-2.67a.05.05,0,0,1,0-.09l1.54-1.65a.21.21,0,0,1,.33,0l.89,1.62A.05.05,0,0,1,175,479.79Z" transform="translate(-148.1 -474.46)"/></svg>