<?xml version="1.0" encoding="utf-8"?>
<!-- Generator: Adobe Illustrator 24.3.0, SVG Export Plug-In . SVG Version: 6.00 Build 0)  -->
<svg version="1.1" id="Laag_1" xmlns="http://www.w3.org/2000/svg" xmlns:xlink="http://www.w3.org/1999/xlink" x="0px" y="0px"
	 viewBox="0 0 232 37.9" style="enable-background:new 0 0 232 37.9;" xml:space="preserve">
<style type="text/css">
	.st0{display:none;}
	.st1{display:inline;fill:#00C9DB;}
	.st2{display:inline;fill:url(#SVGID_1_);}
	.st3{display:inline;fill:url(#SVGID_2_);}
	.st4{display:inline;fill:url(#SVGID_3_);}
	.st5{display:inline;fill:url(#SVGID_4_);}
	.st6{display:inline;fill:url(#SVGID_5_);}
	.st7{display:inline;fill:url(#SVGID_6_);}
	.st8{display:inline;fill:url(#SVGID_7_);}
	.st9{display:inline;fill:url(#SVGID_8_);}
	.st10{display:inline;fill:url(#SVGID_9_);}
	.st11{display:inline;fill:url(#SVGID_10_);}
	.st12{display:inline;fill:url(#SVGID_11_);}
	.st13{display:inline;fill:url(#SVGID_12_);}
	.st14{display:inline;fill:url(#SVGID_13_);}
	.st15{display:inline;fill:url(#SVGID_14_);}
	.st16{display:inline;fill:url(#SVGID_15_);}
	.st17{display:inline;fill:url(#SVGID_16_);}
	.st18{display:inline;fill:url(#SVGID_17_);}
	.st19{display:inline;fill:url(#SVGID_18_);}
	.st20{display:inline;fill:url(#SVGID_19_);}
	.st21{display:inline;fill:url(#SVGID_20_);}
	.st22{display:inline;fill:url(#SVGID_21_);}
	.st23{display:inline;fill:url(#SVGID_22_);}
	.st24{display:inline;fill:url(#SVGID_23_);}
	.st25{display:inline;fill:url(#SVGID_24_);}
	.st26{display:inline;fill:url(#SVGID_25_);}
	.st27{display:inline;fill:url(#SVGID_26_);}
	.st28{display:inline;fill:url(#SVGID_27_);}
	.st29{display:inline;fill:#F1F1F8;}
	.st30{display:inline;}
	.st31{fill:#EBE72A;}
	.st32{clip-path:url(#SVGID_29_);}
	.st33{clip-path:url(#SVGID_31_);fill:#EBE72A;}
	.st34{clip-path:url(#SVGID_33_);fill:#231F20;}
	.st35{clip-path:url(#SVGID_35_);fill:#231F20;}
	.st36{clip-path:url(#SVGID_37_);fill:#231F20;}
	.st37{clip-path:url(#SVGID_39_);fill:#231F20;}
	.st38{clip-path:url(#SVGID_41_);fill:#231F20;}
	.st39{clip-path:url(#SVGID_43_);fill:#231F20;}
</style>
<g id="Layer_2" class="st0">
	<path class="st1" d="M30.4,12.8c-0.1-0.2-0.2-0.4-0.4-0.6C25.3,4.9,18.7-0.7,15.4,0.1c-1.2,0.4-2.2,1.2-2.9,2.2
		c2.1,0.1,4.1,0.9,5.7,2.3c1.3,0.7,2.5,1.6,3.5,2.6c1.6,1.3,6.8,7.2,9.7,14.4c1.1,2.9,1.4,5.2,0.8,6.1l0,0c-0.7,1-3.2,1.7-6.7,1.8
		c-0.3,1.1-0.7,2.2-1.2,3.3c5.5,0.2,10-0.8,11.3-2.8C37.4,27.1,35,19.6,30.4,12.8z"/>
	
		<linearGradient id="SVGID_1_" gradientUnits="userSpaceOnUse" x1="1915.5657" y1="-2857.48" x2="1908.9878" y2="-2856.3828" gradientTransform="matrix(5.190019e-02 -0.9987 0.9987 5.190019e-02 2786.5413 2077.8105)">
		<stop  offset="0" style="stop-color:#F0584B"/>
		<stop  offset="1" style="stop-color:#C73F3D"/>
	</linearGradient>
	<path class="st2" d="M34.4,20.1c-0.3-0.6-0.6-1.3-0.9-2c-0.5,1.5-1,3-1.7,4.5c0.8,2.3,0.9,4.1,0.4,4.9l0,0
		c-0.1,0.2-0.3,0.4-0.5,0.5C32.9,27.5,35.4,26.3,34.4,20.1z"/>
	<path class="st1" d="M30.8,8.9L30.8,8.9c0.9,1,0.8,3.8-0.1,7.3c-3.6,9.4-5.4,10.5-9.5,14.6c-2.8,2.3-5.3,3.4-6.5,3.1l0,0
		c-0.8-0.3-1.7-1.4-2.4-3.3c-1.3-0.4-2.7-0.8-4-1.3c1.3,4.5,3.1,7.9,5.2,8.5c3,1,9.4-3.1,14.7-9.2c6.7-7.9,8.3-19.7,5.8-22.5
		c-1.6-1.8-6.3-2-11.7-0.9C23.4,6.1,24.7,7,25.9,8C28.3,7.8,30.1,8.2,30.8,8.9z"/>
	
		<linearGradient id="SVGID_2_" gradientUnits="userSpaceOnUse" x1="1912.9894" y1="-2855.6379" x2="1912.9894" y2="-2855.6379" gradientTransform="matrix(5.190019e-02 -0.9987 0.9987 5.190019e-02 2786.5413 2077.8105)">
		<stop  offset="0" style="stop-color:#FCBA39"/>
		<stop  offset="1" style="stop-color:#D96D2D"/>
	</linearGradient>
	<path class="st3" d="M33.9,19.1L33.9,19.1L33.9,19.1L33.9,19.1z"/>
	
		<linearGradient id="SVGID_3_" gradientUnits="userSpaceOnUse" x1="1912.0115" y1="-2855.1868" x2="1912.0115" y2="-2855.1868" gradientTransform="matrix(5.190019e-02 -0.9987 0.9987 5.190019e-02 2786.5413 2077.8105)">
		<stop  offset="0" style="stop-color:#FCBA39"/>
		<stop  offset="1" style="stop-color:#D96D2D"/>
	</linearGradient>
	<path class="st4" d="M34.3,20.1L34.3,20.1L34.3,20.1L34.3,20.1z"/>
	
		<radialGradient id="SVGID_4_" cx="1936.847" cy="-2901.5876" r="14.151" gradientTransform="matrix(5.300000e-02 -1.035 1.027 5.400000e-02 2893.9451 2181.479)" gradientUnits="userSpaceOnUse">
		<stop  offset="0" style="stop-color:#F9B314"/>
		<stop  offset="1" style="stop-color:#EC5222"/>
	</radialGradient>
	<path class="st5" d="M34.3,20c-0.1-0.2-0.2-0.5-0.3-0.7c0.1,0.1,0.1,0.3,0.2,0.4C34.2,19.8,34.3,19.9,34.3,20z"/>
	
		<radialGradient id="SVGID_5_" cx="3671.3521" cy="-3119.353" r="14.157" gradientTransform="matrix(1 0 0 1 0 -804.071)" gradientUnits="userSpaceOnUse">
		<stop  offset="0" style="stop-color:#F9B314"/>
		<stop  offset="1" style="stop-color:#EC5222"/>
	</radialGradient>
	<path class="st6" d="M34.4,20.2c1.5,3.5,2.1,6.7,1.6,8.7l0,0C36.5,26.8,35.9,23.7,34.4,20.2L34.4,20.2L34.4,20.2z"/>
	
		<radialGradient id="SVGID_6_" cx="33.7025" cy="822.7061" r="0.3522" gradientTransform="matrix(1 0 0 1 0 -804.071)" gradientUnits="userSpaceOnUse">
		<stop  offset="0" style="stop-color:#F9B314"/>
		<stop  offset="1" style="stop-color:#EC5222"/>
	</radialGradient>
	<path class="st7" d="M33.5,18.2c0.1,0.3,0.3,0.6,0.4,0.9C33.8,18.8,33.6,18.5,33.5,18.2z"/>
	
		<linearGradient id="SVGID_7_" gradientUnits="userSpaceOnUse" x1="1899.1272" y1="-2855.2444" x2="1920.0322" y2="-2855.2444" gradientTransform="matrix(5.190019e-02 -0.9987 0.9987 5.190019e-02 2786.5413 2077.8105)">
		<stop  offset="0" style="stop-color:#FCBA39"/>
		<stop  offset="1" style="stop-color:#D96D2D"/>
	</linearGradient>
	<path class="st8" d="M34.3,20.1L34.3,20.1c-0.1-0.1-0.1-0.2-0.1-0.3C34.2,19.8,34.3,19.9,34.3,20.1z"/>
	
		<radialGradient id="SVGID_8_" cx="34.2725" cy="823.962" r="0.1255" gradientTransform="matrix(1 0 0 1 0 -804.071)" gradientUnits="userSpaceOnUse">
		<stop  offset="0" style="stop-color:#F9B314"/>
		<stop  offset="1" style="stop-color:#EC5222"/>
	</radialGradient>
	<path class="st9" d="M34.3,20.1L34.3,20.1c-0.1-0.1-0.1-0.2-0.1-0.3C34.2,19.8,34.3,19.9,34.3,20.1z"/>
	
		<linearGradient id="SVGID_9_" gradientUnits="userSpaceOnUse" x1="1899.1172" y1="-2856.9392" x2="1920.0374" y2="-2856.9392" gradientTransform="matrix(5.190019e-02 -0.9987 0.9987 5.190019e-02 2786.5413 2077.8105)">
		<stop  offset="0" style="stop-color:#FCBA39"/>
		<stop  offset="1" style="stop-color:#D96D2D"/>
	</linearGradient>
	<path class="st10" d="M32.1,27.8c0-0.1,0.1-0.1,0.1-0.2C32.2,27.7,32.1,27.7,32.1,27.8z"/>
	
		<radialGradient id="SVGID_10_" cx="32.13" cy="831.785" r="7.355222e-02" gradientTransform="matrix(1 0 0 1 0 -804.071)" gradientUnits="userSpaceOnUse">
		<stop  offset="0" style="stop-color:#F9B314"/>
		<stop  offset="1" style="stop-color:#EC5222"/>
	</radialGradient>
	<path class="st11" d="M32.1,27.8c0-0.1,0.1-0.1,0.1-0.2C32.2,27.7,32.1,27.7,32.1,27.8z"/>
	
		<linearGradient id="SVGID_11_" gradientUnits="userSpaceOnUse" x1="1899.1204" y1="-2862.8918" x2="1920.0364" y2="-2862.8918" gradientTransform="matrix(5.190019e-02 -0.9987 0.9987 5.190019e-02 2786.5413 2077.8105)">
		<stop  offset="0" style="stop-color:#FCBA39"/>
		<stop  offset="1" style="stop-color:#D96D2D"/>
	</linearGradient>
	<path class="st12" d="M34.4,20.2c1,6.1-1.4,7.3-2.7,8l0,0c-1.1,0.8-3.5,1.2-6.5,1.3c-3-0.2-6.1-0.8-9-1.6c0,0.5,0.1,0.9,0.2,1.4
		c0,0.2,0.1,0.3,0.1,0.5C24.7,32,33.7,31,36,29C36.5,26.9,35.9,23.7,34.4,20.2z"/>
	
		<linearGradient id="SVGID_12_" gradientUnits="userSpaceOnUse" x1="1899.1592" y1="-2857.1562" x2="1917.6108" y2="-2857.1562" gradientTransform="matrix(5.190019e-02 -0.9987 0.9987 5.190019e-02 2786.5413 2077.8105)">
		<stop  offset="0" style="stop-color:#FCBA39"/>
		<stop  offset="1" style="stop-color:#D96D2D"/>
	</linearGradient>
	<path class="st13" d="M31.9,27.9C31.9,27.9,32,27.9,31.9,27.9C32,27.9,31.9,27.9,31.9,27.9z"/>
	
		<radialGradient id="SVGID_13_" cx="31.9585" cy="831.971" r="4.097510e-02" gradientTransform="matrix(1 0 0 1 0 -804.071)" gradientUnits="userSpaceOnUse">
		<stop  offset="0" style="stop-color:#F9B314"/>
		<stop  offset="1" style="stop-color:#EC5222"/>
	</radialGradient>
	<path class="st14" d="M31.9,27.9C31.9,27.9,32,27.9,31.9,27.9C32,27.9,31.9,27.9,31.9,27.9z"/>
	
		<linearGradient id="SVGID_14_" gradientUnits="userSpaceOnUse" x1="1899.1252" y1="-2855.8611" x2="1920.0342" y2="-2855.8611" gradientTransform="matrix(5.190019e-02 -0.9987 0.9987 5.190019e-02 2786.5413 2077.8105)">
		<stop  offset="0" style="stop-color:#FCBA39"/>
		<stop  offset="1" style="stop-color:#D96D2D"/>
	</linearGradient>
	<path class="st15" d="M33.9,19.1c-0.1-0.3-0.3-0.6-0.4-0.9C33.6,18.5,33.8,18.8,33.9,19.1L33.9,19.1z"/>
	
		<radialGradient id="SVGID_15_" cx="33.708" cy="822.7175" r="0.3628" gradientTransform="matrix(1 0 0 1 0 -804.071)" gradientUnits="userSpaceOnUse">
		<stop  offset="0" style="stop-color:#F9B314"/>
		<stop  offset="1" style="stop-color:#EC5222"/>
	</radialGradient>
	<path class="st16" d="M33.9,19.1c-0.1-0.3-0.3-0.6-0.4-0.9C33.6,18.5,33.8,18.8,33.9,19.1L33.9,19.1z"/>
	
		<linearGradient id="SVGID_16_" gradientUnits="userSpaceOnUse" x1="1912.0167" y1="-2855.0869" x2="1912.0167" y2="-2855.0869" gradientTransform="matrix(5.190019e-02 -0.9987 0.9987 5.190019e-02 2786.5413 2077.8105)">
		<stop  offset="0" style="stop-color:#F0584B"/>
		<stop  offset="1" style="stop-color:#C73F3D"/>
	</linearGradient>
	<path class="st17" d="M34.4,20.1L34.4,20.1L34.4,20.1L34.4,20.1L34.4,20.1z"/>
	
		<linearGradient id="SVGID_17_" gradientUnits="userSpaceOnUse" x1="1915.8003" y1="-2856.0647" x2="1909.2273" y2="-2854.9697" gradientTransform="matrix(5.190019e-02 -0.9987 0.9987 5.190019e-02 2786.5413 2077.8105)">
		<stop  offset="0" style="stop-color:#F0584B"/>
		<stop  offset="1" style="stop-color:#C73F3D"/>
	</linearGradient>
	<path class="st18" d="M34,19.3l-0.1-0.2C34,19.2,34,19.2,34,19.3L34,19.3z"/>
	
		<linearGradient id="SVGID_18_" gradientUnits="userSpaceOnUse" x1="1915.2778" y1="-2859.1548" x2="1908.7048" y2="-2858.0588" gradientTransform="matrix(5.190019e-02 -0.9987 0.9987 5.190019e-02 2786.5413 2077.8105)">
		<stop  offset="0" style="stop-color:#F0584B"/>
		<stop  offset="1" style="stop-color:#C73F3D"/>
	</linearGradient>
	<path class="st19" d="M31.7,28.1c0.1-0.1,0.2-0.1,0.2-0.2C31.8,28,31.8,28.1,31.7,28.1z"/>
	
		<linearGradient id="SVGID_19_" gradientUnits="userSpaceOnUse" x1="1915.454" y1="-2858.9668" x2="1908.795" y2="-2857.8567" gradientTransform="matrix(5.190019e-02 -0.9987 0.9987 5.190019e-02 2786.5413 2077.8105)">
		<stop  offset="0" style="stop-color:#F0584B"/>
		<stop  offset="1" style="stop-color:#C73F3D"/>
	</linearGradient>
	<path class="st20" d="M32,27.9C32,27.8,32,27.8,32,27.9C32,27.8,32,27.8,32,27.9z"/>
	
		<linearGradient id="SVGID_20_" gradientUnits="userSpaceOnUse" x1="1899.1094" y1="-2855.5854" x2="1920.0422" y2="-2855.5854" gradientTransform="matrix(5.190019e-02 -0.9987 0.9987 5.190019e-02 2786.5413 2077.8105)">
		<stop  offset="0" style="stop-color:#FCBA39"/>
		<stop  offset="1" style="stop-color:#D96D2D"/>
	</linearGradient>
	<path class="st21" d="M34,19.2L34,19.2l-0.1-0.1C33.9,19.2,34,19.2,34,19.2z"/>
	
		<linearGradient id="SVGID_21_" gradientUnits="userSpaceOnUse" x1="1915.7976" y1="-2856.0618" x2="1909.2317" y2="-2854.9678" gradientTransform="matrix(5.190019e-02 -0.9987 0.9987 5.190019e-02 2786.5413 2077.8105)">
		<stop  offset="0" style="stop-color:#F0584B"/>
		<stop  offset="1" style="stop-color:#C73F3D"/>
	</linearGradient>
	<path class="st22" d="M34,19.2L34,19.2l-0.1-0.1C33.9,19.2,34,19.2,34,19.2z"/>
	
		<radialGradient id="SVGID_22_" cx="34.0905" cy="823.5471" r="0.191" gradientTransform="matrix(1 0 0 1 0 -804.071)" gradientUnits="userSpaceOnUse">
		<stop  offset="0" style="stop-color:#F9B314"/>
		<stop  offset="1" style="stop-color:#EC5222"/>
	</radialGradient>
	<path class="st23" d="M34.2,19.7c-0.1-0.1-0.1-0.3-0.2-0.4v-0.1C34.1,19.4,34.1,19.6,34.2,19.7z"/>
	
		<linearGradient id="SVGID_23_" gradientUnits="userSpaceOnUse" x1="1915.8182" y1="-2855.9536" x2="1909.2462" y2="-2854.8586" gradientTransform="matrix(5.190019e-02 -0.9987 0.9987 5.190019e-02 2786.5413 2077.8105)">
		<stop  offset="0" style="stop-color:#F0584B"/>
		<stop  offset="1" style="stop-color:#C73F3D"/>
	</linearGradient>
	<path class="st24" d="M34.2,19.7c-0.1-0.1-0.1-0.3-0.2-0.4v-0.1C34.1,19.4,34.1,19.6,34.2,19.7z"/>
	
		<radialGradient id="SVGID_24_" cx="34.4" cy="824.1805" r="3.200125e-02" gradientTransform="matrix(1 0 0 1 0 -804.071)" gradientUnits="userSpaceOnUse">
		<stop  offset="0" style="stop-color:#F9B314"/>
		<stop  offset="1" style="stop-color:#EC5222"/>
	</radialGradient>
	<path class="st25" d="M34.4,20.2L34.4,20.2L34.4,20.2C34.4,20.1,34.4,20.1,34.4,20.2z"/>
	
		<linearGradient id="SVGID_25_" gradientUnits="userSpaceOnUse" x1="1915.8335" y1="-2855.7297" x2="1909.3015" y2="-2854.6418" gradientTransform="matrix(5.190019e-02 -0.9987 0.9987 5.190019e-02 2786.5413 2077.8105)">
		<stop  offset="0" style="stop-color:#F0584B"/>
		<stop  offset="1" style="stop-color:#C73F3D"/>
	</linearGradient>
	<path class="st26" d="M34.4,20.2L34.4,20.2L34.4,20.2C34.4,20.1,34.4,20.1,34.4,20.2z"/>
	
		<linearGradient id="SVGID_26_" gradientUnits="userSpaceOnUse" x1="1899.1172" y1="-2856.1226" x2="1920.0374" y2="-2856.1226" gradientTransform="matrix(5.190019e-02 -0.9987 0.9987 5.190019e-02 2786.5413 2077.8105)">
		<stop  offset="0" style="stop-color:#FCBA39"/>
		<stop  offset="1" style="stop-color:#D96D2D"/>
	</linearGradient>
	<path class="st27" d="M34.4,20.2C34.4,20.1,34.4,20.1,34.4,20.2L34.4,20.2c-0.1-0.2-0.1-0.3-0.2-0.4c-0.1-0.2-0.1-0.3-0.2-0.5
		c0,0,0-0.1-0.1-0.1c-0.1-0.3-0.3-0.6-0.4-0.9c-0.5,1.5-1,3-1.7,4.5c0.8,2.3,0.9,4.1,0.4,4.9l0,0c0,0.1-0.1,0.1-0.1,0.2
		c0,0,0,0-0.1,0.1s-0.1,0.1-0.1,0.1c-0.1,0.1-0.2,0.1-0.2,0.2l0,0C32.9,27.5,35.4,26.3,34.4,20.2z"/>
	
		<radialGradient id="SVGID_27_" cx="3671.3511" cy="-3119.3579" r="14.161" gradientTransform="matrix(1 0 0 1 0 -804.071)" gradientUnits="userSpaceOnUse">
		<stop  offset="0" style="stop-color:#F9B314"/>
		<stop  offset="1" style="stop-color:#EC5222"/>
	</radialGradient>
	<path class="st28" d="M34.4,20.2C34.4,20.1,34.4,20.1,34.4,20.2L34.4,20.2c-0.1-0.2-0.1-0.3-0.2-0.4c-0.1-0.2-0.1-0.3-0.2-0.5
		c0,0,0-0.1-0.1-0.1c-0.1-0.3-0.3-0.6-0.4-0.9c-0.5,1.5-1,3-1.7,4.5c0.8,2.3,0.9,4.1,0.4,4.9l0,0c0,0.1-0.1,0.1-0.1,0.2
		c0,0,0,0-0.1,0.1s-0.1,0.1-0.1,0.1c-0.1,0.1-0.2,0.1-0.2,0.2l0,0C32.9,27.5,35.4,26.3,34.4,20.2z"/>
	<path class="st1" d="M34,19.2L34,19.2c0,0,0-0.1-0.1-0.1l0,0c-0.1-0.3-0.3-0.6-0.4-0.9c-0.5,1.5-1,3-1.7,4.5
		c0.8,2.3,0.9,4.1,0.4,4.9l0,0c0,0.1-0.1,0.1-0.1,0.2c0,0,0,0-0.1,0.1s-0.1,0-0.1,0.1l0,0c-0.1,0.1-0.2,0.1-0.2,0.2l0,0
		c-0.1,0-0.1,0.1-0.2,0.1h-0.1c-0.1,0-0.1,0.1-0.2,0.1h-0.1c-0.1,0-0.1,0.1-0.2,0.1h-0.1c-0.1,0-0.2,0.1-0.2,0.1l0,0
		c-0.2,0.1-0.3,0.1-0.5,0.2c-0.1,0-0.1,0-0.2,0h-0.2L29.5,29h-0.2c-0.1,0-0.2,0-0.3,0.1h-0.2c-0.1,0-0.3,0-0.4,0.1h-0.1
		c-0.8,0.1-1.6,0.2-2.3,0.2l0,0c-0.2,0-0.4,0-0.7,0c0.4-0.5,0.8-1,1.2-1.5c3.8-5.3,6.2-11.5,6.8-18c0.5,0.2,1,0.3,1.5,0.5
		c0-1.9-0.3-3.5-1.1-4.3c-1.2-1.3-4-1.8-7.5-1.5h-0.1c-0.2,0-0.4,0-0.6,0.1h-0.2c-0.2,0-0.4,0-0.6,0.1h-0.1c-0.3,0-0.5,0.1-0.8,0.1
		h-0.2c-0.2,0-0.4,0.1-0.5,0.1l-0.3,0.1l-0.5,0.1h-0.2l0,0c-2,0.4-4,1-6,1.7c-0.2,0-0.4,0.1-0.7,0.1C9.1,9.1,3.5,12.5,1.2,15.5l0,0
		c-0.4,0.5-0.8,1.1-1,1.7l0,0c0,0.1-0.1,0.3-0.1,0.4l0,0C0,17.8,0,18,0,18.2c-0.1,1.8,1.6,4.1,4.3,6.5c-0.1-0.4-0.1-0.7-0.1-1.1
		c2.7,2,5.6,3.6,8.7,4.9c1.2,0.5,2.3,0.9,3.5,1.2l0,0c0.2,0,0.3,0.1,0.5,0.1c0.1,0,0.1,0,0.2,0c-0.2-0.1-0.4-0.1-0.6-0.2
		c0.2,0.7,0.5,1.5,0.9,2.1c0.6,0.2,1.3,0.3,1.9,0.4c-2,1.3-3.7,2-4.6,1.7l0,0c-0.8-0.3-1.7-1.4-2.4-3.3c-1.2-0.3-2.3-0.7-3.4-1.1
		l-0.5-0.2c1.2,4.5,3.1,7.8,5.1,8.4c1.9,0.6,5.4-1.6,9-5.1c6.4,0.6,12-0.7,13.3-2.8c0.2-0.3,0.3-0.7,0.4-1c-0.1,0.1-0.2,0.1-0.3,0.2
		c0.1-0.1,0.2-0.1,0.3-0.2l0,0l0,0C36.6,26.7,35.8,23.1,34,19.2z M34.9,29.5c0.1-0.1,0.2-0.1,0.3-0.2c-0.3,0.1-0.6,0.3-0.9,0.4
		c0.1,0,0.2-0.1,0.3-0.1C34.8,29.6,34.8,29.5,34.9,29.5z M33.6,30l0.2-0.1c0.1,0,0.2-0.1,0.4-0.1c-0.3,0.1-0.7,0.2-1.1,0.3
		C33.3,30.1,33.5,30,33.6,30L33.6,30z M32.9,30.2L32.9,30.2c-0.1,0-0.3,0.1-0.5,0.1l0,0C32.6,30.3,32.7,30.2,32.9,30.2L32.9,30.2z
		 M32.2,30.3c-0.5,0.1-1,0.2-1.5,0.3h0.1C31.3,30.5,31.8,30.4,32.2,30.3L32.2,30.3z M29.9,30.7c0.3,0,0.5-0.1,0.8-0.1
		C30.4,30.6,30.1,30.7,29.9,30.7L29.9,30.7z M29.9,30.7c-0.6,0.1-1.2,0.1-1.8,0.1C28.7,30.8,29.3,30.8,29.9,30.7L29.9,30.7z
		 M8.7,23.9c-1.5-1-2.7-2.3-3.8-3.7C4.8,20.1,4.8,20,4.7,20c0,0,0,0,0-0.1c-0.1-0.2-0.2-0.4-0.3-0.6c0,0,0-0.1-0.1-0.1s0-0.1,0-0.1
		V19v-0.1c0-0.1,0-0.1,0-0.2v-0.1c0-0.1,0-0.1,0-0.2l0,0c0-0.1,0-0.1,0-0.2c0,0,0,0,0-0.1V18c0,0,0,0,0-0.1s0.1-0.1,0.1-0.2
		c0,0,0,0,0-0.1s0.1-0.1,0.1-0.2c0,0,0-0.1,0.1-0.1s0.1-0.1,0.1-0.1s0-0.1,0.1-0.1s0.1-0.1,0.1-0.2s0.1-0.1,0.2-0.2L5,16.6
		c0-0.1,0.1-0.1,0.1-0.2l0.1-0.1c0.2-0.2,0.4-0.4,0.6-0.6l0,0C5.9,15.6,6,15.6,6,15.5l0,0c0.2-0.2,0.4-0.3,0.5-0.5l0,0
		c0.6-0.5,1.2-0.9,1.8-1.3c5.2-2.5,10.6-4.5,16.3-5.7c0.5,0,0.9,0,1.3,0l0,0c0.8-0.1,1.6,0,2.4,0l0,0c0.1,0,0.2,0,0.3,0l0,0
		c0.3,0,0.6,0.1,0.9,0.2l0,0c0.1,0,0.1,0,0.2,0.1h0.1L30,8.4c0,0,0.1,0,0.1,0.1s0.1,0,0.1,0.1s0.1,0,0.1,0.1s0.1,0,0.1,0.1
		s0.1,0.1,0.1,0.1s0,0,0.1,0S30.7,9,30.7,9l0,0c0.1,0,0.2,0,0.2,0.1l0,0c0,0.1,0.1,0.2,0.1,0.3c0.5,1.2,0.4,3.8-0.4,6.8
		c-3,8-4.8,10-7.8,12.9C14.9,28.1,13.3,26.6,8.7,23.9z M21.4,30.6c-1-0.1-2.1-0.3-3.1-0.5c0.3,0.1,0.6,0.1,0.9,0.2h0.1
		C20,30.4,20.7,30.5,21.4,30.6L21.4,30.6L21.4,30.6z M17.2,29.8c0.3,0.1,0.6,0.2,1,0.2h0.1C17.9,30,17.5,29.9,17.2,29.8L17.2,29.8z
		 M24.1,30.8L24.1,30.8c0.7,0,1.4,0.1,2,0.1l0,0c0.7,0,1.3,0,1.9,0C26.7,30.9,25.4,30.9,24.1,30.8L24.1,30.8z M35.3,29.3L35.3,29.3
		c0.2-0.1,0.2-0.1,0.3-0.2l0,0C35.5,29.2,35.4,29.2,35.3,29.3L35.3,29.3z"/>
	<path class="st1" d="M33.5,18.2c-0.5,1.5-1,3-1.7,4.5c0.8,2.3,0.9,4.1,0.4,4.9l0,0c-0.7,1-3.4,1.7-7,1.8
		c-7.7-0.8-10.3-1.9-13.5-3.7c-0.7-0.4-1.5-0.9-2.3-1.4l-0.7-0.4c-1.2-0.9-2.4-1.9-3.4-3l0,0c-0.7-0.7-1.1-1.6-1.3-2.5l0,0
		c0-0.8,1-2,2.5-3.2c0-1.4,0.1-2.8,0.3-4.2c-4,2.4-6.7,5.1-6.8,7.2c-0.2,2.6,3.6,6.6,8.9,9.8l0,0c0.3,0.2,0.5,0.3,0.8,0.5l0.1,0.1
		c0.3,0.2,0.6,0.3,0.9,0.5l0,0c0.3,0.1,0.5,0.3,0.8,0.4l0.2,0.1c0.3,0.1,0.6,0.3,0.9,0.4l0.1,0.1l0,0c9.3,4.4,21.1,2.7,22.9-0.2
		C37,27.8,36,23.2,33.5,18.2z"/>
	<path class="st1" d="M14.6,33.9L14.6,33.9c-1.2-0.4-2.6-2.9-3.5-6.4c-1.6-9.9-0.6-11.8,1-17.5c1.3-3.4,2.9-5.7,4.1-5.9l0,0
		c0.8-0.2,2.2,0.4,3.7,1.6c1.4-0.3,2.7-0.6,4.1-0.8c-3.3-3.3-6.6-5.2-8.7-4.8c-3.1,0.6-6.6,7.4-8.1,15.3
		c-1.8,10.2,2.7,21.3,6.1,22.4c2.3,0.7,6.5-1.4,10.6-5.1c-1.6-0.1-3.2-0.2-4.7-0.5C17.2,33.5,15.5,34.2,14.6,33.9z"/>
	<path class="st1" d="M15.4,0.1c-2.7,0.7-5.5,7.4-6.6,15.3C7.6,25.2,11.6,36,14.4,38c2.4,0,6-2.1,9.5-5.2c-1.6-0.1-3.2-0.2-4.7-0.5
		c-2,1.3-3.7,2-4.6,1.7l0,0c-1.2-0.4-2.6-2.9-3.5-6.4c-1.6-9.9-0.6-11.8,1-17.5c1.3-3.4,2.9-5.7,4.1-5.9l0,0C17,4,18.4,4.6,19.9,5.8
		c1.2-0.3,2.4-0.6,3.5-0.7L24,4.8C20.7,1.6,17.5-0.4,15.4,0.1z"/>
	<path class="st1" d="M22.3,34.1c0.5-0.4,1.1-0.9,1.6-1.4c-1.6-0.1-3.2-0.2-4.7-0.5c-2,1.3-3.7,2-4.6,1.7l0,0
		c-0.2-0.1-0.4-0.2-0.6-0.4C15,34.5,16.8,36.6,22.3,34.1z"/>
	<path class="st1" d="M24,4.8L24,4.8c-1.7-1.4-3.9-1.9-6.1-1.3c-0.7,0.1-1.3,0.4-1.9,0.7h0.1l0,0c0.8-0.2,2.2,0.4,3.7,1.6
		c1.2-0.3,2.4-0.6,3.5-0.7L24,4.8z"/>
	<path class="st29" d="M62.4,32.2H47.8V5.9h4.4v22.6h10.2V32.2z"/>
	<path class="st29" d="M81.6,23.9H68.8c0,1.5,0.5,3,1.6,4c1.2,1,2.7,1.5,4.2,1.4c2,0,3.9-0.6,5.5-1.8V31c-2.1,1.2-4.4,1.7-6.8,1.6
		c-2.4,0.1-4.8-0.8-6.5-2.6c-1.6-1.7-2.4-4.1-2.4-7.2c-0.1-2.6,0.8-5.2,2.6-7.1c1.7-1.8,4-2.8,6.4-2.8c2.3-0.1,4.5,0.8,6,2.5
		c1.5,2,2.3,4.4,2.1,6.9L81.6,23.9L81.6,23.9z M77.5,20.9c0.1-1.3-0.3-2.5-1.1-3.6c-0.7-0.9-1.8-1.3-2.9-1.3c-1.2,0-2.3,0.5-3.1,1.3
		c-0.9,1-1.4,2.2-1.6,3.5L77.5,20.9L77.5,20.9z"/>
	<path class="st29" d="M102.4,32.2h-4.3V21.6c0-3.5-1.2-5.3-3.7-5.3c-1.2,0-2.4,0.5-3.2,1.5c-0.9,1-1.3,2.3-1.3,3.7v10.7h-4.3V13.4
		H90v3.1l0,0c1.2-2.2,3.5-3.6,6.1-3.6c1.8-0.1,3.5,0.6,4.7,2c1.2,1.7,1.8,3.7,1.6,5.8C102.4,20.7,102.4,32.2,102.4,32.2z"/>
	<path class="st29" d="M115.9,32.6c-2.6,0.1-5.1-0.8-6.9-2.6c-1.8-1.9-2.7-4.4-2.6-7c-0.2-2.7,0.8-5.4,2.7-7.4
		c2-1.8,4.6-2.8,7.3-2.7c2.6-0.1,5,0.8,6.9,2.6c1.7,2,2.6,4.6,2.5,7.2c0.1,2.7-0.8,5.3-2.7,7.2C121.2,31.7,118.6,32.7,115.9,32.6z
		 M116.1,16.3c-1.5-0.1-3,0.6-3.9,1.7c-1,1.4-1.5,3.1-1.4,4.8c-0.1,1.7,0.4,3.3,1.5,4.7c1,1.1,2.4,1.8,3.9,1.7
		c1.5,0.1,2.9-0.5,3.9-1.7c1-1.4,1.5-3.1,1.3-4.8c0.1-1.7-0.4-3.4-1.3-4.8C119,16.9,117.6,16.2,116.1,16.3L116.1,16.3z"/>
</g>
<g id="Laag_2_1_">
	<g id="Laag_3" class="st0">
		<rect x="-3.7" y="-6.1" class="st30" width="141.3" height="55.8"/>
	</g>
	<polygon class="st31" points="0,0 0,32.6 18.7,29.6 16.1,18.5 81.5,16.3 184.1,0 	"/>
	<g id="Logo__x2B__Lifeline_1_1_">
		<g>
			<g>
				<defs>
					
						<rect id="SVGID_28_" x="7.9" y="2.9" transform="matrix(0.9877 -0.1564 0.1564 0.9877 -1.5733 9.4006)" width="102.1" height="23.6"/>
				</defs>
				<clipPath id="SVGID_29_">
					<use xlink:href="#SVGID_28_"  style="overflow:visible;"/>
				</clipPath>
				<g class="st32">
					<g>
						<defs>
							
								<rect id="SVGID_30_" x="7.9" y="2.9" transform="matrix(0.9877 -0.1564 0.1564 0.9877 -1.5733 9.4006)" width="102.1" height="23.6"/>
						</defs>
						<clipPath id="SVGID_31_">
							<use xlink:href="#SVGID_30_"  style="overflow:visible;"/>
						</clipPath>
						<path class="st33" d="M98.7,13.5c-0.6,0.1-1,0.5-1.2,1c-0.6,2-1.4,4.5-1.6,5.1c-0.3,1-0.9,1.3-2,1.5l-7,1.1
							c-1.1,0.2-1.7,0.1-2.3-0.8c-0.2-0.2-0.6-0.8-1.1-1.5c-0.2-0.3-0.7-0.5-1.1-0.4L9.8,31L6.6,11L108.3,0l1.8,11.7L98.7,13.5z"/>
					</g>
					<g>
						<defs>
							
								<rect id="SVGID_32_" x="7.9" y="2.9" transform="matrix(0.9877 -0.1564 0.1564 0.9877 -1.5733 9.4006)" width="102.1" height="23.6"/>
						</defs>
						<clipPath id="SVGID_33_">
							<use xlink:href="#SVGID_32_"  style="overflow:visible;"/>
						</clipPath>
						<path class="st34" d="M36.2,20.4c0.3,0,0.4,0.1,0.4,0.4l0.1,3.6c0,0.2-0.1,0.5-0.4,0.5L35,25.1c-0.3,0-0.4-0.2-0.4-0.4
							l-0.1-2.5l-3,3c-0.3,0.3-0.3,0.4-0.8,0.5l-1.1,0.2c-0.4,0.1-0.5-0.1-0.6-0.3l-1-2.4l-2.2,2.9c-0.2,0.2-0.3,0.5-0.7,0.5
							l-1.8,0.3c-0.3,0-0.4-0.2-0.2-0.4l3.3-4.1c0.3-0.4,0.5-0.6,1-0.7l1.5-0.2c0.5-0.1,0.6,0.1,0.8,0.3l0.9,2.3l3.2-3.1
							c0.2-0.2,0.4-0.4,0.8-0.5C35,20.6,36.2,20.4,36.2,20.4"/>
					</g>
					<g>
						<defs>
							
								<rect id="SVGID_34_" x="7.9" y="2.9" transform="matrix(0.9877 -0.1564 0.1564 0.9877 -1.5733 9.4006)" width="102.1" height="23.6"/>
						</defs>
						<clipPath id="SVGID_35_">
							<use xlink:href="#SVGID_34_"  style="overflow:visible;"/>
						</clipPath>
						<path class="st35" d="M58,17.2c-0.3,0-2.1,0.1-3.1,0.2c-3.5,0.6-6.2,2-6.6,3.3c-0.4,1.3,1.7,2,5.2,1.4
							c0.9-0.2,2.5-0.5,3.4-0.8c0.2-0.1,0.4-0.2,0.4-0.4l0.1-0.3c0.1-0.2,0-0.4-0.3-0.3c-0.8,0.2-2.3,0.7-3.4,0.9
							c-2.1,0.3-3-0.1-2.8-0.9s1.5-1.6,3.7-2c0.9-0.2,2.2-0.2,2.9-0.3h0.3c0.3,0,0.3-0.1,0.4-0.2l0.1-0.3
							C58.3,17.3,58.3,17.2,58,17.2"/>
					</g>
					<g>
						<defs>
							
								<rect id="SVGID_36_" x="7.9" y="2.9" transform="matrix(0.9877 -0.1564 0.1564 0.9877 -1.5733 9.4006)" width="102.1" height="23.6"/>
						</defs>
						<clipPath id="SVGID_37_">
							<use xlink:href="#SVGID_36_"  style="overflow:visible;"/>
						</clipPath>
						<path class="st36" d="M45.7,19.3c-0.1-0.2-0.3-0.4-0.7-0.3l-1.6,0.3c-0.4,0.1-0.8,0.4-1.1,0.6l-4.4,4.3
							c-0.2,0.2-0.1,0.5,0.2,0.4l1.2-0.2c0.3,0,0.5-0.2,0.9-0.6l3.7-3.7l1,1.7L43,22.1c-0.1,0-0.1,0-0.1,0.1l-0.5,0.5
							c0,0.1,0,0.1,0.1,0.1l2.1-0.3c0.3-0.1,0.6-0.1,0.8,0.3c0,0,0.1,0.2,0.2,0.3c0.1,0.2,0.2,0.4,0.6,0.4l1.6-0.3
							c0.3,0,0.3-0.3,0.1-0.5L45.7,19.3z"/>
					</g>
					<g>
						<defs>
							
								<rect id="SVGID_38_" x="7.9" y="2.9" transform="matrix(0.9877 -0.1564 0.1564 0.9877 -1.5733 9.4006)" width="102.1" height="23.6"/>
						</defs>
						<clipPath id="SVGID_39_">
							<use xlink:href="#SVGID_38_"  style="overflow:visible;"/>
						</clipPath>
						<path class="st37" d="M77.1,14.3c-0.1-0.2-0.3-0.4-0.7-0.3l-1.6,0.3c-0.4,0.1-0.8,0.4-1.1,0.6l-4.4,4.3
							c-0.2,0.2-0.1,0.5,0.2,0.4l1.2-0.2c0.3,0,0.5-0.2,0.9-0.6l3.7-3.7l1,1.7l-1.9,0.3c-0.1,0-0.1,0-0.1,0.1l-0.5,0.5
							c0,0.1,0,0.1,0.1,0.1l2.1-0.3c0.3-0.1,0.6-0.1,0.8,0.3c0,0,0.1,0.2,0.2,0.3c0.1,0.2,0.2,0.4,0.6,0.4l1.6-0.3
							c0.3,0,0.3-0.3,0.1-0.5L77.1,14.3z"/>
					</g>
					<g>
						<defs>
							
								<rect id="SVGID_40_" x="7.9" y="2.9" transform="matrix(0.9877 -0.1564 0.1564 0.9877 -1.5733 9.4006)" width="102.1" height="23.6"/>
						</defs>
						<clipPath id="SVGID_41_">
							<use xlink:href="#SVGID_40_"  style="overflow:visible;"/>
						</clipPath>
						<path class="st38" d="M67.6,15.4C67.3,15.5,67,15.8,67,16l-0.8,2.5l-4.2-2c-0.1-0.1-0.4-0.1-0.7-0.1l-1.1,0.2
							c-0.3,0-0.5,0.3-0.5,0.6l-1.1,3.7c-0.1,0.2,0,0.5,0.3,0.4l1.4-0.2c0.4-0.1,0.5-0.4,0.6-0.6l0.7-2.4l4.1,1.9
							c0.1,0,0.5,0.2,0.9,0.2l0.8-0.1c0.4-0.1,0.5-0.3,0.6-0.6l1.1-3.8c0.1-0.3,0-0.5-0.3-0.4L67.6,15.4z"/>
					</g>
					<g>
						<defs>
							
								<rect id="SVGID_42_" x="7.9" y="2.9" transform="matrix(0.9877 -0.1564 0.1564 0.9877 -1.5733 9.4006)" width="102.1" height="23.6"/>
						</defs>
						<clipPath id="SVGID_43_">
							<use xlink:href="#SVGID_42_"  style="overflow:visible;"/>
						</clipPath>
						<path class="st39" d="M100,7.3c-0.3-0.1-2.6-0.8-3.3-1c-0.7-0.2-0.8-0.3-1.4,0c-0.6,0.2-5,1.8-5.3,1.9
							c-0.4,0.1-0.9,0.3-1.3,0.4c-0.1,0-0.3,0.1-0.4,0.1s-0.2,0-0.4,0c-0.4,0-1,0-1.4,0s-5-0.1-5.7-0.1c-0.6,0-0.7,0.1-1.3,0.5
							c-0.6,0.4-2.5,1.8-2.8,2s-0.3,0.6,0.1,0.7c0.4,0.1,5.1,1.8,5.5,1.9c0.5,0.2,0.7,0.4,0.9,0.6c0.1,0.2,2.5,3.5,2.9,4
							s0.8,0.6,1.5,0.5L92,18c0.7-0.1,1-0.3,1.2-0.9s1.4-4.5,1.5-4.7s0.3-0.5,0.6-0.8c0.4-0.3,4.4-3.3,4.7-3.6
							C100.4,7.8,100.3,7.5,100,7.3 M96.2,9.1c-0.2,0.2-2.2,1.8-2.6,2.1c-0.2,0.2-0.4,0.4-0.6,0.8c-0.2,0.4-1.6,3.3-1.6,3.4
							s-0.2,0.4-0.6,0.5L88,16.3c-0.5,0.1-0.7-0.2-0.8-0.3c0-0.1-2.3-2.4-2.6-2.7c-0.3-0.3-0.6-0.5-0.8-0.6
							c-0.4-0.2-2.9-1.1-3.1-1.2c-0.2-0.1-0.4-0.2-0.2-0.4c0.2-0.2,0.7-0.7,0.9-0.9c0.2-0.2,0.4-0.2,0.8-0.2s5.2-0.1,5.5-0.1
							c0.2,0,0.4,0,0.7-0.1c0.2,0,0.4-0.1,0.7-0.1c0.3-0.1,4.8-1.5,5.2-1.6C94.8,8,95,8,95.2,8.1c0.2,0.1,0.9,0.5,1.1,0.6
							C96.5,8.8,96.4,8.9,96.2,9.1"/>
					</g>
				</g>
			</g>
		</g>
	</g>
</g>
</svg>
