<?xml version="1.0" encoding="utf-8"?>
<!-- Generator: Adobe Illustrator 25.1.0, SVG Export Plug-In . SVG Version: 6.00 Build 0)  -->
<svg version="1.1" id="Laag_1" xmlns="http://www.w3.org/2000/svg" xmlns:xlink="http://www.w3.org/1999/xlink" x="0px" y="0px"
	 viewBox="0 0 184.1 32.6" style="enable-background:new 0 0 184.1 32.6;" xml:space="preserve">
<style type="text/css">
	.st0{fill:#EBE72A;}
	.st1{clip-path:url(#SVGID_2_);fill:#EBE72A;}
	.st2{clip-path:url(#SVGID_4_);fill:#231F20;}
	.st3{clip-path:url(#SVGID_6_);fill:#231F20;}
	.st4{clip-path:url(#SVGID_8_);fill:#231F20;}
	.st5{clip-path:url(#SVGID_10_);fill:#231F20;}
	.st6{clip-path:url(#SVGID_12_);fill:#231F20;}
	.st7{clip-path:url(#SVGID_14_);fill:#231F20;}
</style>
<path class="st0" d="M0,0v32.6l18.7-3l-2.6-11.1l65.4-2.2L184.1,0L0,0z"/>
<g>
	<g>
		<g>
			<defs>
				
					<rect id="SVGID_1_" x="7.9" y="2.9" transform="matrix(0.9877 -0.1564 0.1564 0.9877 -1.5736 9.4007)" width="102.1" height="23.6"/>
			</defs>
			<clipPath id="SVGID_2_">
				<use xlink:href="#SVGID_1_"  style="overflow:visible;"/>
			</clipPath>
			<path class="st1" d="M98.7,13.5c-0.6,0.1-1,0.5-1.2,1c-0.6,2-1.4,4.5-1.6,5.1c-0.3,1-0.9,1.3-2,1.5l-7,1.1
				c-1.1,0.2-1.7,0.1-2.3-0.8c-0.2-0.2-0.6-0.8-1.1-1.5c-0.2-0.3-0.7-0.5-1.1-0.4L9.8,31L6.6,11L108.3,0l1.8,11.7L98.7,13.5z"/>
		</g>
		<g>
			<g>
				<defs>
					
						<rect id="SVGID_3_" x="7.9" y="2.9" transform="matrix(0.9877 -0.1564 0.1564 0.9877 -1.5736 9.4007)" width="102.1" height="23.6"/>
				</defs>
				<clipPath id="SVGID_4_">
					<use xlink:href="#SVGID_3_"  style="overflow:visible;"/>
				</clipPath>
				<path class="st2" d="M36.2,20.4c0.3,0,0.4,0.1,0.4,0.4l0.1,3.6c0,0.2-0.1,0.5-0.4,0.5L35,25.1c-0.3,0-0.4-0.2-0.4-0.4l-0.1-2.5
					l-3,3c-0.3,0.3-0.3,0.4-0.8,0.5l-1.1,0.2c-0.4,0.1-0.5-0.1-0.6-0.3l-1-2.4l-2.2,2.9c-0.2,0.2-0.3,0.5-0.7,0.5l-1.8,0.3
					c-0.3,0-0.4-0.2-0.2-0.4l3.3-4.1c0.3-0.4,0.5-0.6,1-0.7l1.5-0.2c0.5-0.1,0.6,0.1,0.8,0.3l0.9,2.3l3.2-3.1
					c0.2-0.2,0.4-0.4,0.8-0.5C35,20.6,36.2,20.4,36.2,20.4"/>
			</g>
			<g>
				<defs>
					
						<rect id="SVGID_5_" x="7.9" y="2.9" transform="matrix(0.9877 -0.1564 0.1564 0.9877 -1.5736 9.4007)" width="102.1" height="23.6"/>
				</defs>
				<clipPath id="SVGID_6_">
					<use xlink:href="#SVGID_5_"  style="overflow:visible;"/>
				</clipPath>
				<path class="st3" d="M58,17.2c-0.3,0-2.1,0.1-3.1,0.2c-3.5,0.6-6.2,2-6.6,3.3s1.7,2,5.2,1.4c0.9-0.2,2.5-0.5,3.4-0.8
					c0.2-0.1,0.4-0.2,0.4-0.4l0.1-0.3c0.1-0.2,0-0.4-0.3-0.3c-0.8,0.2-2.3,0.7-3.4,0.9c-2.1,0.3-3-0.1-2.8-0.9s1.5-1.6,3.7-2
					c0.9-0.2,2.2-0.2,2.9-0.3h0.3c0.3,0,0.3-0.1,0.4-0.2l0.1-0.3C58.3,17.3,58.3,17.2,58,17.2"/>
			</g>
			<g>
				<defs>
					
						<rect id="SVGID_7_" x="7.9" y="2.9" transform="matrix(0.9877 -0.1564 0.1564 0.9877 -1.5736 9.4007)" width="102.1" height="23.6"/>
				</defs>
				<clipPath id="SVGID_8_">
					<use xlink:href="#SVGID_7_"  style="overflow:visible;"/>
				</clipPath>
				<path class="st4" d="M45.7,19.3c-0.1-0.2-0.3-0.4-0.7-0.3l-1.6,0.3c-0.4,0.1-0.8,0.4-1.1,0.6l-4.4,4.3c-0.2,0.2-0.1,0.5,0.2,0.4
					l1.2-0.2c0.3,0,0.5-0.2,0.9-0.6l3.7-3.7l1,1.7L43,22.1c-0.1,0-0.1,0-0.1,0.1l-0.5,0.5c0,0.1,0,0.1,0.1,0.1l2.1-0.3
					c0.3-0.1,0.6-0.1,0.8,0.3c0,0,0.1,0.2,0.2,0.3c0.1,0.2,0.2,0.4,0.6,0.4l1.6-0.3c0.3,0,0.3-0.3,0.1-0.5L45.7,19.3z"/>
			</g>
			<g>
				<defs>
					
						<rect id="SVGID_9_" x="7.9" y="2.9" transform="matrix(0.9877 -0.1564 0.1564 0.9877 -1.5736 9.4007)" width="102.1" height="23.6"/>
				</defs>
				<clipPath id="SVGID_10_">
					<use xlink:href="#SVGID_9_"  style="overflow:visible;"/>
				</clipPath>
				<path class="st5" d="M77.1,14.3c-0.1-0.2-0.3-0.4-0.7-0.3l-1.6,0.3c-0.4,0.1-0.8,0.4-1.1,0.6l-4.4,4.3c-0.2,0.2-0.1,0.5,0.2,0.4
					l1.2-0.2c0.3,0,0.5-0.2,0.9-0.6l3.7-3.7l1,1.7l-1.9,0.3c-0.1,0-0.1,0-0.1,0.1l-0.5,0.5c0,0.1,0,0.1,0.1,0.1l2.1-0.3
					c0.3-0.1,0.6-0.1,0.8,0.3c0,0,0.1,0.2,0.2,0.3c0.1,0.2,0.2,0.4,0.6,0.4l1.6-0.3c0.3,0,0.3-0.3,0.1-0.5L77.1,14.3z"/>
			</g>
			<g>
				<defs>
					
						<rect id="SVGID_11_" x="7.9" y="2.9" transform="matrix(0.9877 -0.1564 0.1564 0.9877 -1.5736 9.4007)" width="102.1" height="23.6"/>
				</defs>
				<clipPath id="SVGID_12_">
					<use xlink:href="#SVGID_11_"  style="overflow:visible;"/>
				</clipPath>
				<path class="st6" d="M67.6,15.4C67.3,15.5,67,15.8,67,16l-0.8,2.5l-4.2-2c-0.1-0.1-0.4-0.1-0.7-0.1l-1.1,0.2
					c-0.3,0-0.5,0.3-0.5,0.6l-1.1,3.7c-0.1,0.2,0,0.5,0.3,0.4l1.4-0.2c0.4-0.1,0.5-0.4,0.6-0.6l0.7-2.4l4.1,1.9
					c0.1,0,0.5,0.2,0.9,0.2l0.8-0.1c0.4-0.1,0.5-0.3,0.6-0.6l1.1-3.8c0.1-0.3,0-0.5-0.3-0.4L67.6,15.4z"/>
			</g>
			<g>
				<defs>
					
						<rect id="SVGID_13_" x="7.9" y="2.9" transform="matrix(0.9877 -0.1564 0.1564 0.9877 -1.5736 9.4007)" width="102.1" height="23.6"/>
				</defs>
				<clipPath id="SVGID_14_">
					<use xlink:href="#SVGID_13_"  style="overflow:visible;"/>
				</clipPath>
				<path class="st7" d="M100,7.3c-0.3-0.1-2.6-0.8-3.3-1s-0.8-0.3-1.4,0c-0.6,0.2-5,1.8-5.3,1.9c-0.4,0.1-0.9,0.3-1.3,0.4
					c-0.1,0-0.3,0.1-0.4,0.1s-0.2,0-0.4,0c-0.4,0-1,0-1.4,0s-5-0.1-5.7-0.1c-0.6,0-0.7,0.1-1.3,0.5s-2.5,1.8-2.8,2s-0.3,0.6,0.1,0.7
					s5.1,1.8,5.5,1.9c0.5,0.2,0.7,0.4,0.9,0.6c0.1,0.2,2.5,3.5,2.9,4s0.8,0.6,1.5,0.5L92,18c0.7-0.1,1-0.3,1.2-0.9s1.4-4.5,1.5-4.7
					s0.3-0.5,0.6-0.8c0.4-0.3,4.4-3.3,4.7-3.6C100.4,7.8,100.3,7.5,100,7.3 M96.2,9.1c-0.2,0.2-2.2,1.8-2.6,2.1
					c-0.2,0.2-0.4,0.4-0.6,0.8s-1.6,3.3-1.6,3.4s-0.2,0.4-0.6,0.5L88,16.3c-0.5,0.1-0.7-0.2-0.8-0.3c0-0.1-2.3-2.4-2.6-2.7
					s-0.6-0.5-0.8-0.6c-0.4-0.2-2.9-1.1-3.1-1.2s-0.4-0.2-0.2-0.4s0.7-0.7,0.9-0.9s0.4-0.2,0.8-0.2s5.2-0.1,5.5-0.1
					c0.2,0,0.4,0,0.7-0.1c0.2,0,0.4-0.1,0.7-0.1c0.3-0.1,4.8-1.5,5.2-1.6C94.8,8,95,8,95.2,8.1s0.9,0.5,1.1,0.6S96.4,8.9,96.2,9.1"
					/>
			</g>
		</g>
	</g>
</g>
</svg>
